<svg width="25" height="28" viewBox="0 0 25 28" fill="none" xmlns="http://www.w3.org/2000/svg">
<path d="M1.36564 22.7976C1.52145 22.7976 1.67115 22.7736 1.81474 22.7224V25.7029C1.81474 26.0762 1.97055 26.4375 2.24551 26.6934C2.50825 26.9433 2.85348 27.0727 3.20787 27.0547C3.34535 27.0486 3.47977 27.0215 3.60503 26.9764C3.66919 27.2263 3.80362 27.4551 3.99303 27.6357C4.24355 27.8705 4.56129 28 4.9004 28C4.91873 28 4.94012 28 4.95845 28C5.29146 27.9849 5.60613 27.8495 5.84443 27.6146C5.9422 27.5183 6.02163 27.4069 6.08273 27.2895C6.25382 27.3678 6.44324 27.4129 6.64487 27.4159C6.99621 27.4159 7.32922 27.2805 7.59501 27.0276C7.84248 26.7747 7.97996 26.4465 7.97996 26.1003V24.9171C8.11438 24.9593 8.25492 24.9834 8.39851 24.9834C8.7529 24.9803 9.08897 24.8419 9.33948 24.595C9.4067 24.5288 9.46474 24.4505 9.51974 24.3692H11.7347C12.3793 25.0345 13.5372 25.9919 14.8784 25.9919H15.3153H18.2543C19.0028 25.9919 19.6138 25.3868 19.6169 24.6462C19.6169 24.4926 19.5924 24.3451 19.5405 24.2036H22.5651C22.9439 24.2036 23.3105 24.0501 23.5702 23.7791C23.8238 23.5202 23.9521 23.183 23.9368 22.8308C23.9307 22.6953 23.9032 22.5628 23.8574 22.4394C24.111 22.3762 24.3431 22.2437 24.5265 22.057C24.78 21.7951 24.9083 21.4579 24.8931 21.1057C24.8778 20.7775 24.7403 20.4674 24.502 20.2326C24.4043 20.1362 24.2912 20.058 24.1721 19.9978C24.2515 19.8292 24.2973 19.6425 24.3004 19.4438C24.3004 19.0976 24.1629 18.7694 23.9063 18.5075C23.7474 18.357 23.558 18.2516 23.3533 18.1914V12.971C24.0285 12.3357 25 11.1947 25 9.87304V9.43951V6.54329C25 5.80569 24.389 5.20356 23.6344 5.19754C23.4786 5.19754 23.3289 5.22162 23.1853 5.2728V2.2953C23.1853 1.92198 23.0294 1.56071 22.7545 1.3048C22.4917 1.05492 22.1465 0.928476 21.7921 0.943529C21.6546 0.94955 21.5202 0.976646 21.395 1.02181C21.3308 0.771923 21.1964 0.543116 21.007 0.362478C20.7412 0.112597 20.4051 -0.0138493 20.0415 0.00120378C19.7085 0.0162569 19.3939 0.151735 19.1556 0.386564C19.0578 0.482904 18.9784 0.594297 18.9173 0.711711C18.7462 0.633435 18.5568 0.588275 18.3551 0.585265C18.0038 0.585265 17.6708 0.720743 17.405 0.973635C17.1575 1.22653 17.02 1.55469 17.02 1.90091V3.08408C16.8856 3.04193 16.7451 3.01785 16.6015 3.01785C16.2471 3.02086 15.911 3.15935 15.6605 3.40622C15.5536 3.51159 15.465 3.63503 15.3947 3.77653C15.3397 3.89093 15.3092 4.01738 15.2908 4.14984H13.2653C12.6207 3.4845 11.4628 2.52712 10.1216 2.52712H9.68471H6.74569C5.99719 2.52712 5.38617 3.13225 5.38311 3.87287C5.38311 4.02641 5.40755 4.17393 5.45949 4.31543H2.43493C2.05609 4.31543 1.68948 4.46897 1.42979 4.73992C1.17622 4.99884 1.0479 5.33603 1.06318 5.68827C1.06929 5.82375 1.09679 5.95622 1.14261 6.07965C0.889038 6.14288 0.65685 6.27534 0.473543 6.462C0.219968 6.72392 0.0916535 7.06112 0.106929 7.41336C0.122205 7.74152 0.259685 8.05161 0.497984 8.28644C0.595747 8.38278 0.708786 8.46105 0.827936 8.52127C0.748503 8.68986 0.702676 8.87652 0.699621 9.07522C0.699621 9.42144 0.837101 9.7496 1.09373 10.0115C1.2526 10.1621 1.44201 10.2674 1.64671 10.3276V15.0302C0.971526 15.6655 0 16.8065 0 18.1282V18.5587C0 18.5587 0 18.5587 0 18.5617V21.4579C0 22.1955 0.614078 22.7976 1.36564 22.8037V22.7976ZM2.02554 8.65976C2.02554 8.65976 2.0286 8.65976 2.03165 8.65976H7.57363C7.8272 8.65976 8.03189 8.45804 8.03189 8.20816C8.03189 7.95828 7.8272 7.75657 7.57363 7.75657H2.04998C2.04998 7.75657 2.03776 7.75657 2.03471 7.75657H1.42979C1.32286 7.75657 1.22205 7.71442 1.14567 7.63915C1.07235 7.5669 1.02957 7.47056 1.02346 7.36519C1.01735 7.22369 1.09068 7.12434 1.1365 7.07918C1.2251 6.98886 1.35036 6.93467 1.47868 6.93467H2.38604C2.38604 6.93467 2.39215 6.93467 2.39521 6.93467H7.57668C7.83026 6.93467 8.03495 6.73296 8.03495 6.48308C8.03495 6.23319 7.83026 6.03148 7.57668 6.03148H2.40132C2.40132 6.03148 2.39521 6.03148 2.39215 6.03148C2.24856 6.03148 2.15386 5.96826 2.09581 5.91106C2.02249 5.84181 1.98277 5.74848 1.97666 5.6401C1.97055 5.50161 2.04387 5.40226 2.0897 5.3571C2.1783 5.26678 2.30356 5.21259 2.43187 5.21259H9.39753C9.65111 5.21259 9.8558 5.01088 9.8558 4.761C9.8558 4.51112 9.65111 4.30941 9.39753 4.30941H6.72736C6.61738 4.3064 6.51045 4.26124 6.43102 4.17995C6.34547 4.09565 6.29659 3.98426 6.29659 3.86985C6.29659 3.62599 6.49823 3.42729 6.74569 3.42729H9.68471H10.1216C10.919 3.42729 11.8691 3.96318 12.7276 4.89949C12.8131 4.99282 12.9384 5.04701 13.0667 5.04701H15.2695V9.91519H13.0667C12.9292 9.91519 12.7979 9.9754 12.7123 10.0808C12.4313 10.418 12.0921 10.6859 11.6797 10.8846C11.6553 10.8936 11.6339 10.9057 11.6339 10.9057C11.2948 11.0652 10.9281 11.1616 10.5463 11.1947C10.4668 11.2007 10.3904 11.2067 10.308 11.2067H4.50935C4.43908 11.2067 4.37492 11.1917 4.3291 11.1706C4.28327 11.1495 4.24355 11.1194 4.20689 11.0863C4.1519 11.0291 4.08163 10.9328 4.08163 10.7943C4.08163 10.6377 4.17634 10.4932 4.32604 10.424C4.37798 10.3999 4.43908 10.3848 4.50018 10.3848H8.54821C8.80178 10.3848 9.00648 10.1831 9.00648 9.93325C9.00648 9.68337 8.80178 9.48166 8.54821 9.48166H3.14982H2.03471C1.92472 9.48166 1.81779 9.4365 1.74447 9.36725C1.69864 9.31908 1.61921 9.21672 1.61921 9.07221C1.61921 8.84943 1.80557 8.66578 2.0286 8.65976H2.02554ZM16.2257 4.16188C16.2471 4.11673 16.2746 4.07759 16.3113 4.04146C16.3693 3.98426 16.4671 3.91802 16.6076 3.91802C16.7665 3.91802 16.9131 4.01135 16.9834 4.15887C17.0078 4.21005 17.0231 4.27027 17.0231 4.33048V8.31956C17.0231 8.56944 17.2278 8.77115 17.4814 8.77115C17.7349 8.77115 17.9396 8.56944 17.9396 8.31956V3.0028V1.90392C17.9396 1.79554 17.9855 1.69016 18.0557 1.61791C18.1046 1.57275 18.2085 1.49447 18.3551 1.49447C18.5812 1.49447 18.7676 1.67511 18.7737 1.8979V1.90392V7.36218C18.7737 7.61206 18.9784 7.81377 19.2319 7.81377C19.4855 7.81377 19.6902 7.61206 19.6902 7.36218V1.91897C19.6902 1.91897 19.6902 1.90693 19.6902 1.90091V1.30781C19.6902 1.20244 19.733 1.10008 19.8094 1.02181C19.8827 0.94955 19.9804 0.907401 20.0874 0.90138C20.2279 0.892348 20.3318 0.967614 20.3776 1.01277C20.4693 1.10008 20.5243 1.22352 20.5243 1.34996V2.24412C20.5243 2.24412 20.5243 2.25014 20.5243 2.25315V7.36218C20.5243 7.61206 20.729 7.81377 20.9825 7.81377C21.2361 7.81377 21.4408 7.61206 21.4408 7.36218V2.26519C21.4408 2.26519 21.4408 2.25917 21.4408 2.25616C21.4408 2.11466 21.5049 2.02133 21.563 1.96413C21.6363 1.89188 21.731 1.85274 21.838 1.84672C21.9754 1.83768 22.0793 1.91295 22.1251 1.95811C22.2168 2.04542 22.2718 2.16885 22.2718 2.2953V9.15952C22.2718 9.4094 22.4765 9.61111 22.73 9.61111C22.9836 9.61111 23.1883 9.4094 23.1883 9.15952V6.52823C23.1914 6.41985 23.2403 6.31448 23.3197 6.23319C23.4052 6.1489 23.5183 6.10073 23.6344 6.10073C23.8818 6.10073 24.0835 6.29943 24.0835 6.54329V9.4365V9.87003C24.0835 10.6558 23.5397 11.5921 22.5895 12.4381C22.4948 12.5224 22.4398 12.6458 22.4398 12.7723V15.4608C22.4398 15.4608 22.4398 15.4878 22.4429 15.4999H22.4398V18.1252H21.7707C21.8135 17.9927 21.838 17.8542 21.838 17.7127C21.8349 17.3605 21.6944 17.0323 21.4438 16.7854C21.3369 16.6801 21.2117 16.5927 21.0681 16.5235C20.897 16.4452 20.7076 16.4031 20.4998 16.4001H17.4966V12.7723C17.4966 12.6368 17.4355 12.5073 17.3286 12.423C16.9864 12.1461 16.7145 11.8119 16.5129 11.4054C16.5037 11.3814 16.4915 11.3603 16.4915 11.3603C16.3296 11.0261 16.2288 10.6648 16.1982 10.2855C16.1921 10.2072 16.186 10.132 16.186 10.0537V4.34252C16.186 4.27328 16.2013 4.21005 16.2227 4.16188H16.2257ZM22.9775 19.8563C22.9775 19.8563 22.9745 19.8563 22.9714 19.8563H17.4294C17.1758 19.8563 16.9712 20.058 16.9712 20.3079C16.9712 20.5577 17.1758 20.7594 17.4294 20.7594H22.9531C22.9531 20.7594 22.9653 20.7594 22.9683 20.7594H23.5733C23.6802 20.7594 23.781 20.8016 23.8574 20.8769C23.9307 20.9491 23.9735 21.0455 23.9796 21.1508C23.9857 21.2923 23.9124 21.3917 23.8666 21.4368C23.778 21.5272 23.6527 21.5814 23.5244 21.5814H22.617C22.617 21.5814 22.6109 21.5814 22.6078 21.5814H17.4264C17.1728 21.5814 16.9681 21.7831 16.9681 22.0329C16.9681 22.2828 17.1728 22.4845 17.4264 22.4845H22.5987C22.5987 22.4845 22.6048 22.4845 22.6078 22.4845C22.7514 22.4845 22.8461 22.5478 22.9042 22.605C22.9775 22.6742 23.0172 22.7675 23.0233 22.8759C23.0295 23.0144 22.9561 23.1138 22.9103 23.1589C22.8217 23.2492 22.6964 23.3034 22.5681 23.3034H15.6025C15.3489 23.3034 15.1442 23.5051 15.1442 23.755C15.1442 24.0049 15.3489 24.2066 15.6025 24.2066H18.2726C18.3826 24.2096 18.4895 24.2548 18.569 24.3361C18.6545 24.4204 18.7034 24.5318 18.7034 24.6462C18.7034 24.89 18.5018 25.0887 18.2543 25.0887H15.3153H14.8784C14.081 25.0887 13.1309 24.5528 12.2724 23.6165C12.1868 23.5232 12.0616 23.469 11.9333 23.469H9.73054V18.6008H11.9333C12.0708 18.6008 12.2021 18.5406 12.2877 18.4352C12.5687 18.0981 12.9079 17.8301 13.3203 17.6314C13.3447 17.6224 13.3661 17.6103 13.3661 17.6103C13.7052 17.4508 14.0719 17.3544 14.4537 17.3213C14.5332 17.3153 14.6096 17.3093 14.692 17.3093H20.4937C20.564 17.3093 20.6281 17.3243 20.674 17.3454C20.7198 17.3665 20.7595 17.3966 20.7962 17.4297C20.8542 17.4839 20.9214 17.5832 20.9214 17.7217C20.9214 17.8783 20.8267 18.0228 20.677 18.092C20.6251 18.1161 20.564 18.1312 20.5029 18.1312H16.4548C16.2013 18.1312 15.9966 18.3329 15.9966 18.5828C15.9966 18.8327 16.2013 19.0344 16.4548 19.0344H21.8532H22.9683C23.0783 19.0344 23.1853 19.0795 23.2586 19.1488C23.3044 19.1969 23.3838 19.2993 23.3838 19.4438C23.3838 19.6666 23.1975 19.8502 22.9745 19.8563H22.9775ZM8.39545 24.0832C8.23659 24.0832 8.08994 23.9898 8.01968 23.8423C7.99523 23.7911 7.97996 23.7309 7.97996 23.6707V19.6816C7.97996 19.4318 7.77527 19.2301 7.52169 19.2301C7.26812 19.2301 7.06342 19.4318 7.06342 19.6816V25.0014V26.1003C7.06342 26.2087 7.0176 26.3141 6.94733 26.3863C6.89845 26.4315 6.79457 26.5097 6.64793 26.5097C6.42185 26.5097 6.23549 26.3291 6.22938 26.1063V26.1003V20.639C6.22938 20.3891 6.02468 20.1874 5.77111 20.1874C5.51754 20.1874 5.31284 20.3891 5.31284 20.639V26.0822C5.31284 26.0822 5.31284 26.0943 5.31284 26.1003V26.6934C5.31284 26.7988 5.27007 26.9011 5.19369 26.9794C5.12037 27.0517 5.02261 27.0938 4.91568 27.0998C4.77514 27.1089 4.67127 27.0336 4.62544 26.9884C4.53379 26.9011 4.4788 26.7777 4.4788 26.6512V25.7571C4.4788 25.7571 4.4788 25.7511 4.4788 25.7481V20.642C4.4788 20.3922 4.2741 20.1904 4.02053 20.1904C3.76696 20.1904 3.56226 20.3922 3.56226 20.642V25.739C3.56226 25.739 3.56226 25.745 3.56226 25.7481C3.56226 25.8896 3.49811 25.9829 3.44006 26.0401C3.36674 26.1123 3.27203 26.1515 3.1651 26.1575C3.02456 26.1635 2.92374 26.0913 2.87792 26.0461C2.78626 25.9588 2.73127 25.8354 2.73127 25.7089V18.8447C2.73127 18.5948 2.52658 18.3931 2.27301 18.3931C2.01943 18.3931 1.81474 18.5948 1.81474 18.8447V21.476C1.81168 21.5844 1.7628 21.6897 1.68337 21.771C1.59782 21.8553 1.48479 21.9035 1.36869 21.9035C1.12123 21.9035 0.919589 21.7048 0.919589 21.4609V18.5647V18.1342C0.919589 17.3484 1.4634 16.4121 2.41354 15.5661C2.50825 15.4818 2.56324 15.3584 2.56324 15.2319V10.3939H3.23231C3.18954 10.5263 3.1651 10.6648 3.1651 10.8063C3.16815 11.1556 3.30869 11.4867 3.55921 11.7336C3.66614 11.839 3.7914 11.9263 3.93499 11.9955C4.10607 12.0738 4.29549 12.116 4.50324 12.119H7.50642V15.2319C7.50642 15.3674 7.56752 15.4969 7.67445 15.5812C8.01662 15.8582 8.28852 16.1923 8.49016 16.5988C8.49933 16.6229 8.51155 16.6439 8.51155 16.6439C8.67347 16.9781 8.77429 17.3394 8.80484 17.7187C8.81095 17.797 8.81706 17.8723 8.81706 17.9505V23.6677C8.81706 23.737 8.80178 23.8002 8.7804 23.8483C8.75901 23.8935 8.72846 23.9326 8.69485 23.9688C8.63681 24.026 8.53904 24.0922 8.39851 24.0922L8.39545 24.0832ZM15.6758 11.7788C15.688 11.8028 15.6972 11.8269 15.7002 11.8299C15.9202 12.2695 16.2165 12.6549 16.5801 12.983V16.4031H14.689C14.5821 16.4031 14.4812 16.4091 14.3774 16.4181C13.8824 16.4573 13.4058 16.5837 12.9445 16.8035C12.9201 16.8155 12.8956 16.8246 12.8926 16.8276C12.4465 17.0443 12.0555 17.3364 11.7225 17.6946H9.71832C9.71832 17.6736 9.71832 17.6555 9.71832 17.6344C9.6786 17.1467 9.55029 16.6801 9.33032 16.2224C9.3181 16.1984 9.30893 16.1743 9.30588 16.1713C9.08591 15.7317 8.78956 15.3463 8.426 15.0182V12.1129H10.3171C10.424 12.1129 10.5279 12.1069 10.6287 12.0979C11.1237 12.0587 11.6003 11.9323 12.0616 11.7155C12.086 11.7035 12.1105 11.6945 12.1135 11.6915C12.5596 11.4747 12.9506 11.1827 13.2836 10.8244H15.3581C15.4222 11.1495 15.5291 11.4687 15.6788 11.7788H15.6758Z" fill="#FF8800"/>
</svg>
